<svg xmlns="http://www.w3.org/2000/svg" version="1.1" xmlns:xlink="http://www.w3.org/1999/xlink" xmlns:svgjs="http://svgjs.com/svgjs" width="512" height="512" x="0" y="0" viewBox="0 0 512.001 512.001" style="enable-background:new 0 0 512 512" xml:space="preserve" class=""><g><g xmlns="http://www.w3.org/2000/svg"><path d="m415.407 450.241c6.027 0 10.931-4.903 10.931-10.93v-366.621c0-6.027-4.903-10.931-10.931-10.931h-318.813c-6.027 0-10.931 4.903-10.931 10.931v366.621c0 6.026 4.903 10.93 10.931 10.93zm-119.66-15c3.803-39.332 18.074-98.547 57.763-101.071 6.7 6.354 30.34 33.493 31.984 101.071zm-185.447 0h-9.636v-358.481h310.674v358.481h-10.846c-1.828-78.085-31.908-107.987-38.611-113.693-1.683-2.628-6.16-9.235-13.151-16.818 2.948-3.044 4.688-7.157 4.688-11.571v-98.272c0-.124-.003-.248-.009-.371-.049-.981-1.334-24.303-13.705-47.876-11.678-22.251-35.611-48.776-83.311-48.776-24.359 0-46.919 9.423-63.522 26.533-16.116 16.607-24.992 38.524-24.992 61.712v109.693c-2.321 3.501-6.871 11.049-10.719 21.563-7.879 7.799-44.395 47.63-46.86 117.876zm170.165-295.197c-29.489-29.448-78.375-11.665-78.375 28.788v40.313c0 15.948 6.584 30.05 16.839 38.918 0 3.595.161 5.948-.966 9.385-1.392 4.245-4.232 7.919-8.161 10.371l-26.924 16.805v-98.516c0-41.072 32.291-73.245 73.515-73.245 32.104 0 55.591 13.568 69.807 40.328 10.501 19.766 12.089 40.008 12.218 41.921v98.047c0 .661-.394 1.256-1.001 1.515-.462.196-3.428 1.457-39.981 17.006-1.094.461-2.289-.326-2.289-1.515 0-22.422 0-87.633 0-97.987v-.006-36.719c-.001-13.2-5.098-25.838-14.682-35.409zm-31.846 103.375c-19.576 0-31.528-15.289-31.528-34.273v-40.313c0-15.078 11.644-27.457 26.284-28.363 19.351-1.182 36.772 14.587 36.772 34.983v36.719c-.001 16.8-13.248 31.174-31.528 31.247zm31.527 2.814v60.036c-51.317 52.571-85.868 30.93-60.425-27.053 7.391-5.337 12.544-13.562 13.869-22.988 15.938 5.022 34.01 1.549 46.556-9.995zm-112.688 189.008h-42.145c1.485-38.24 14.109-66.807 25.354-84.946-.758 23.314 7.806 45.834 14.412 54.941v.001c2.057 2.836 4.647 5.171 7.602 6.889-3.172 6.686-5.071 14.667-5.223 23.115zm15.016 0c.164-6.805 1.827-13.823 5.434-19.773h20.745c13.311 0 24.222 8.324 28.196 19.773zm98.173 0h-28.236c-3.572-17.677-20.293-34.773-43.758-34.773h-23.54c-2.988 0-6.068-1.498-7.933-4.1-1.541-2.138-5.334-10.578-6.565-14.289-9.854-27.761-4.034-57.484 10.024-78.374 7.048-4.399 11.791-7.36 18.846-11.763-7.422 28.15-3.068 54.575 25.5 58.679 21.835 3.133 44.449-13.204 60.347-28.379 4.721 4.481 11.78 5.874 17.974 3.241l31.649-13.462c3.014 3.056 5.602 6.023 7.732 8.651-42.438 10.437-58.288 70.948-62.04 114.569z" fill="#d1af78" data-original="#000000" class=""></path><path d="m273.5 481.121h170.536c7.268 0 13.18-5.913 13.18-13.181v-423.879c0-7.268-5.912-13.181-13.18-13.181h-376.072c-7.268 0-13.181 5.913-13.181 13.181v423.88c0 7.268 5.913 13.181 13.181 13.181h170.536c4.143 0 7.5-3.357 7.5-7.5s-3.357-7.5-7.5-7.5h-168.716v-420.242h372.433v420.241h-168.717c-4.143 0-7.5 3.357-7.5 7.5s3.358 7.5 7.5 7.5z" fill="#d1af78" data-original="#000000" class=""></path><path d="m480.597 246.001c4.143 0 7.5-3.357 7.5-7.5v-221.436c0-9.41-7.655-17.065-17.065-17.065h-430.063c-9.41 0-17.065 7.656-17.065 17.065v477.87c0 9.41 7.655 17.065 17.065 17.065h430.063c9.41 0 17.065-7.655 17.065-17.065v-221.434c0-4.143-3.357-7.5-7.5-7.5s-7.5 3.357-7.5 7.5v221.435c0 1.139-.927 2.065-2.065 2.065h-430.063c-1.139 0-2.065-.927-2.065-2.065v-477.871c0-1.139.927-2.065 2.065-2.065h430.063c1.139 0 2.065.927 2.065 2.065v221.436c0 4.143 3.358 7.5 7.5 7.5z" fill="#d1af78" data-original="#000000" class=""></path></g></g></svg>