<svg xmlns="http://www.w3.org/2000/svg" version="1.1" xmlns:xlink="http://www.w3.org/1999/xlink" xmlns:svgjs="http://svgjs.com/svgjs" width="512" height="512" x="0" y="0" viewBox="0 0 512 512" style="enable-background:new 0 0 512 512" xml:space="preserve" class=""><g><g xmlns="http://www.w3.org/2000/svg"><path d="m484.569 469.941v-39.65c0-4.15-3.364-7.515-7.515-7.515s-7.515 3.365-7.515 7.515v38.718h-9.654v-104.922c3.205.444 6.449.444 9.654 0v36.149c0 4.15 3.364 7.515 7.515 7.515s7.515-3.365 7.515-7.515v-41.998c9.165-6.327 15.187-16.897 15.187-28.851 0-19.321-15.72-35.04-35.043-35.04s-35.043 15.719-35.043 35.04c0 11.954 6.021 22.524 15.187 28.851v13.99c-1.805 3.764-7.874 15.349-19.119 26.743-17.878 18.116-39.876 27.302-65.381 27.302s-47.503-9.186-65.381-27.302c-11.253-11.403-17.323-22.996-19.119-26.743v-13.99c9.165-6.327 15.187-16.897 15.187-28.851 0-19.321-15.72-35.04-35.043-35.04s-35.043 15.719-35.043 35.04c0 11.954 6.022 22.524 15.187 28.851v13.99c-1.805 3.764-7.874 15.349-19.119 26.743-17.878 18.116-39.876 27.302-65.381 27.302s-47.503-9.186-65.381-27.302c-11.253-11.403-17.323-22.996-19.119-26.743v-13.99c9.165-6.327 15.187-16.897 15.187-28.851 0-19.321-15.72-35.04-35.043-35.04s-35.043 15.719-35.043 35.04c0 11.954 6.021 22.523 15.186 28.85v111.704c-15.698 3.657-27.432 17.752-27.432 34.544 0 4.151 3.364 7.515 7.515 7.515h79.545c4.151 0 7.515-3.364 7.515-7.515 0-16.793-11.734-30.888-27.431-34.544v-69.915c2.346 2.944 4.998 5.996 7.979 9.049 20.581 21.083 47.042 32.227 76.521 32.227 29.48 0 55.94-11.144 76.522-32.227 2.981-3.053 5.632-6.105 7.978-9.049v69.915c-15.698 3.656-27.432 17.751-27.432 34.544 0 4.15 3.364 7.515 7.515 7.515h79.546c4.151 0 7.515-3.364 7.515-7.515 0-16.793-11.734-30.888-27.431-34.544v-69.915c2.346 2.944 4.998 5.996 7.978 9.049 20.581 21.083 47.042 32.227 76.522 32.227 29.479 0 55.94-11.144 76.521-32.227 2.981-3.053 5.632-6.105 7.979-9.049v69.915c-15.697 3.656-27.431 17.751-27.431 34.544 0 4.15 3.364 7.515 7.515 7.515h79.545c4.151 0 7.515-3.364 7.515-7.515-.001-16.793-11.735-30.888-27.432-34.544zm-19.857-160.564c11.035 0 20.014 8.977 20.014 20.01 0 11.034-8.978 20.011-20.014 20.011-11.035 0-20.014-8.977-20.014-20.011.001-11.033 8.979-20.01 20.014-20.01zm-417.424 0c11.035 0 20.014 8.977 20.014 20.01 0 11.034-8.979 20.011-20.014 20.011s-20.014-8.977-20.014-20.011c0-11.033 8.978-20.01 20.014-20.01zm0 55.051c1.638 0 3.248-.122 4.827-.34v104.922h-9.655v-104.923c1.579.219 3.189.341 4.828.341zm30.827 132.543h-61.655c3.001-7.566 10.395-12.931 19.019-12.931h23.617c8.623-.001 16.018 5.364 19.019 12.931zm177.885-187.594c11.035 0 20.014 8.977 20.014 20.01 0 11.034-8.979 20.011-20.014 20.011s-20.014-8.977-20.014-20.011c0-11.033 8.979-20.01 20.014-20.01zm0 55.051c1.638 0 3.248-.122 4.827-.34v104.922h-9.654v-104.923c1.579.219 3.189.341 4.827.341zm30.828 132.543h-61.656c3.002-7.566 10.396-12.931 19.02-12.931h23.616c8.623-.001 16.018 5.364 19.02 12.931zm147.057 0c3.001-7.566 10.395-12.931 19.019-12.931h23.617c8.623 0 16.018 5.365 19.019 12.931z" fill="#d1af78" data-original="#000000" class=""></path><path d="m511.968 6.878c-.324-3.818-3.646-6.878-7.483-6.878h-496.97c-4.091 0-7.515 3.432-7.515 7.515v257.03c0 4.083 3.424 7.515 7.515 7.515h496.971c4.091 0 7.515-3.432 7.515-7.515v-257.03c-.001-.215-.015-.427-.033-.637zm-31.647 222.879v-187.454l16.65-16.648v220.75zm-145.859-4.402-39.148-36.785 59.73-56.124c7.149-6.719 18.349-6.719 25.5 0l84.748 79.631v13.277h-130.83zm151.879-210.326-16.648 16.646h-78.89c-4.151 0-7.515 3.365-7.515 7.515s3.364 7.515 7.515 7.515h74.488v144.75l-74.456-69.961c-12.92-12.141-33.161-12.142-46.083-.001l-60.412 56.765-75.959-71.373c-12.92-12.14-33.162-12.14-46.084 0l-56.815 53.385c-3.024 2.842-3.172 7.598-.331 10.622 2.844 3.026 7.6 3.172 10.622.331l56.815-53.385c7.151-6.718 18.35-6.718 25.501 0l114.424 107.517h-254.348l35.7-33.546c3.025-2.842 3.172-7.598.331-10.622-2.842-3.025-7.599-3.171-10.622-.331l-36.866 34.64v-168.791h314.036c4.151 0 7.515-3.365 7.515-7.515s-3.364-7.515-7.515-7.515h-318.438l-16.647-16.646zm-471.312 10.626 16.65 16.648v187.455l-16.65 16.648zm10.63 231.375 16.648-16.646h427.387l16.648 16.646z" fill="#d1af78" data-original="#000000" class=""></path><path d="m284.576 63.222c-17.915 0-32.49 14.574-32.49 32.487s14.575 32.487 32.49 32.487 32.489-14.573 32.489-32.487-14.574-32.487-32.489-32.487zm0 49.944c-9.628 0-17.461-7.831-17.461-17.457s7.833-17.458 17.461-17.458c9.627 0 17.46 7.832 17.46 17.458s-7.833 17.457-17.46 17.457z" fill="#d1af78" data-original="#000000" class=""></path></g></g></svg>